# xmcd CD database file
#
# Track frame offsets:
#	150
#	18857
#	37627
#	53920
#	72542
#	93385
#	111080
#	130575
#	150570
#	170967
#	192077
#	211025
#
# Disc length: 3112 seconds
#
# Revision: 1
# Processed by: cddbd v1.5.1PL2 Copyright (c) Steve Scherf et al.
# Submitted via: CDex 1.70beta2
#
DISCID=960c260c
DTITLE=前川 清 - 夢まぼろし１２景
DYEAR=1994
DGENRE=Blues
TTITLE0=悲しみの恋世界
TTITLE1=アデュー
TTITLE2=フライト
TTITLE3=悲しみの化石
TTITLE4=恋しぐれ
TTITLE5=みぞれ
TTITLE6=国際連絡船
TTITLE7=黙　恋
TTITLE8=７月１０日
TTITLE9=潮騒のゆくへ
TTITLE10=恋まぼろし
TTITLE11=砂の愛
EXTD=YEAR: 1994
EXTT0=
EXTT1=
EXTT2=
EXTT3=
EXTT4=
EXTT5=
EXTT6=
EXTT7=
EXTT8=
EXTT9=
EXTT10=
EXTT11=
PLAYORDER=
